<svg id="Layer_1" data-name="Layer 1" xmlns="http://www.w3.org/2000/svg" viewBox="0 0 162 95"><defs><style>.cls-1{fill:#fff;}</style></defs><title>musician_logoArtboard 2</title><path class="cls-1" d="M30.22,90.93c4.09-7.12,8.05-14,12.06-21-.92-.77-2-.46-2.86-.46-11.07,0-22.13,0-33.19,0-.64,0-1.27,0-1.91,0a.84.84,0,0,1-.92-.79c0-.57.45-.72.93-.74.72,0,1.45,0,2.17,0,11.52,0,23,0,34.55,0a3.58,3.58,0,0,0,3.65-2.06Q62,35.75,79.33,5.77c.44-.75.61-2,1.54-2S82,5,82.46,5.72Q99.76,35.6,117,65.55a4,4,0,0,0,4,2.35c11.42-.1,22.85-.06,34.28-.06.72,0,1.45,0,2.17,0,.53,0,1.2,0,1.15.77s-.64.79-1.22.8H119.87c-.33,1.32.57,2,1,2.83q4.83,8.52,9.77,17c.74,1.28,1.08,2-1,2q-49.24-.07-98.49-.06A5,5,0,0,1,30.22,90.93ZM47.54,67.61h66.74C103.1,48.23,92.13,29.19,80.91,9.75,69.68,29.23,58.7,48.27,47.54,67.61ZM35.79,88h87.08c3.15,0,3.15,0,1.53-2.81-2.71-4.71-5.45-9.4-8.14-14.13a2.63,2.63,0,0,0-2.53-1.6q-32.79,0-65.56,0a2.23,2.23,0,0,0-2.29,1C42.65,76.14,39.38,81.76,35.79,88Z"/></svg>